<svg xmlns="http://www.w3.org/2000/svg" width="16.414" height="16.414" viewBox="0 0 16.414 16.414">
  <g id="Path_14526" data-name="Path 14526" transform="translate(0.707 0.707)" fill="#fff">
    <path d="M 14.00930976867676 15.35397815704346 L 13.83253002166748 15.17716789245605 L 7.500480651855469 8.843757629394531 L 1.167049765586853 15.1771879196167 L 0.9902697205543518 15.35395812988281 L 0.8134897351264954 15.1771879196167 L -0.176980271935463 14.18671798706055 L -0.3537502586841583 14.00993824005127 L -0.176980271935463 13.83315849304199 L 6.156450748443604 7.499727249145508 L -0.1769602745771408 1.167678117752075 L -0.3537702858448029 0.9908981919288635 L -0.176980271935463 0.8140981793403625 L 0.8134897351264954 -0.1763718277215958 L 0.9902497529983521 -0.353121817111969 L 1.167029738426208 -0.1763918250799179 L 7.500480651855469 6.155697345733643 L 13.83255004882812 -0.1763718277215958 L 14.0093297958374 -0.3531418144702911 L 14.18610954284668 -0.1763718277215958 L 15.17657947540283 0.8140981793403625 L 15.35336017608643 0.9908881783485413 L 15.17656993865967 1.167668223381042 L 8.843830108642578 7.499727249145508 L 15.17658996582031 13.83316802978516 L 15.35334014892578 14.00994777679443 L 15.17657947540283 14.18671798706055 L 14.18610954284668 15.1771879196167 L 14.00930976867676 15.35397815704346 Z" stroke="none"/>
    <path d="M 0.990269660949707 0.000408172607421875 L -0.0002002716064453125 0.9908781051635742 L 6.510029792785645 7.49970817565918 L -0.0002002716064453125 14.00993824005127 L 0.990269660949707 15.00040817260742 L 7.500499725341797 8.490178108215332 L 14.0093297958374 15.00040817260742 L 14.99979972839355 14.00993824005127 L 8.490269660949707 7.49970817565918 L 14.99979972839355 0.9908781051635742 L 14.0093297958374 0.000408172607421875 L 7.500499725341797 6.509238243103027 L 0.990269660949707 0.000408172607421875 M 14.0093297958374 -0.7067022323608398 L 15.70693016052246 0.9908981323242188 L 9.197369575500488 7.499746322631836 L 15.70689010620117 14.00995826721191 L 14.00928974151611 15.70754814147949 L 7.500456809997559 9.197320938110352 L 0.990269660949707 15.70751857757568 L -0.707310676574707 14.00993824005127 L 5.802886962890625 7.499751091003418 L -0.7073402404785156 0.9909181594848633 L 0.990229606628418 -0.7066621780395508 L 7.500466823577881 5.802170753479004 L 14.0093297958374 -0.7067022323608398 Z" stroke="none" fill="#fff"/>
  </g>
</svg>
