<svg id="Group_6993" data-name="Group 6993" xmlns="http://www.w3.org/2000/svg" width="40" height="40" viewBox="0 0 40 40">
  <path id="Exclamation_Mark_warning" data-name="Exclamation Mark warning" d="M94.249,74.75a20,20,0,1,0,20,20A20,20,0,0,0,94.249,74.75Z" transform="translate(-74.249 -74.75)" fill="#cd3c14" fill-rule="evenodd"/>
  <g id="Group_6763" data-name="Group 6763" transform="translate(17.749 8.754)">
    <path id="Path_14478" data-name="Path 14478" d="M127.416,87.425h-.033a2.206,2.206,0,0,0-2.2,2.216,2.056,2.056,0,0,0,.675,1.642,2.343,2.343,0,0,0,1.582.587,2.281,2.281,0,0,0,1.564-.594,2.081,2.081,0,0,0,.667-1.639,2.114,2.114,0,0,0-.661-1.564A2.2,2.2,0,0,0,127.416,87.425Z" transform="translate(-125.184 -69.381)" fill="#fff"/>
    <path id="Path_14479" data-name="Path 14479" d="M128.963,75.349a2.211,2.211,0,0,0-3.128.067,2.694,2.694,0,0,0-.645,1.925c0,.6.847,11.712,1.055,12.163a1.125,1.125,0,0,0,1.115.677c.026,0,.048-.01.074-.009s.047.009.074.009a1.127,1.127,0,0,0,1.115-.677c.2-.451,1.055-11.558,1.055-12.163a2.714,2.714,0,0,0-.647-1.925C129.007,75.393,128.986,75.37,128.963,75.349Z" transform="translate(-125.183 -74.733)" fill="#fff"/>
  </g>
</svg>
