<svg xmlns="http://www.w3.org/2000/svg" width="571.001" height="400.715" viewBox="0 0 571.001 400.715">
  <g id="Group_6924" data-name="Group 6924" transform="translate(-789.462 -219.399)">
    <path id="Path_3" data-name="Path 3" d="M177.364,348.147l-.793-12.343c-2.238-.819-2.531-8.216.328-18.078,0,0,2.039-7.268,5.5-7.63s13.559,8.75,12.626,13.831-9.682,20.408-9.682,20.408Z" transform="translate(760.11 163.306)"/>
    <path id="Path_4" data-name="Path 4" d="M177.364,348.147l-.793-12.343c-2.238-.819-2.531-8.216.328-18.078,0,0,2.039-7.268,5.5-7.63s13.559,8.75,12.626,13.831-9.682,20.408-9.682,20.408Z" transform="translate(760.11 163.306)" fill="none" stroke="#fff" stroke-miterlimit="10" stroke-width="1"/>
    <path id="Path_5" data-name="Path 5" d="M176.358,325.971a6.633,6.633,0,0,1-5.225-2.28,6.564,6.564,0,0,1-1.332-5.411l3.66-20.65.127-.142c.762-.848,18.794-20.8,32.332-23.449a23.563,23.563,0,0,1,4.265-.316c10.768,0,33.427,4.227,34.726,17.292,1.389,13.959-27.8,19.884-32.664,20.772l1.734,13.324-.695.06c-.039,0-3.832.331-7.809.331-.857,0-1.723-.015-2.567-.051-.594-.025-1.478-.037-2.58-.037-5.427,0-16.285.28-23.648.552Z" transform="translate(758.367 150.979)" fill="#fff"/>
    <path id="Path_6" data-name="Path 6" d="M210.352,274.562c10.747,0,32.821,4.221,34.06,16.688,1.438,14.449-32.744,20.157-32.744,20.157l1.727,13.267s-3.756.328-7.75.328c-.846,0-1.7-.015-2.539-.051-.6-.025-1.5-.038-2.615-.038-5.493,0-16.321.281-23.667.552-.1,0-.2.005-.3.005a5.694,5.694,0,0,1-5.9-6.9l3.626-20.464s18.489-20.6,31.962-23.239a22.7,22.7,0,0,1,4.135-.3m0-1.339a24.226,24.226,0,0,0-4.392.328c-13.756,2.691-31.934,22.8-32.7,23.659l-.256.284-.067.376-3.626,20.464a7.031,7.031,0,0,0,7.217,8.476c.115,0,.23,0,.347-.007,7.351-.27,18.2-.55,23.617-.55,1.137,0,2,.012,2.558.036.8.035,1.675.052,2.6.052,4.006,0,7.711-.319,7.867-.333l1.391-.121-.179-1.386-1.564-12c6.415-1.233,33.98-7.365,32.585-21.38-1.344-13.52-24.426-17.895-35.393-17.895" transform="translate(758.198 150.809)"/>
    <path id="Path_7" data-name="Path 7" d="M210.446,307.665l1.727,13.267a93.648,93.648,0,0,1-10.289.277c-3.049-.13-17.623,1.306-25.618.767a5.728,5.728,0,0,1-5.434-3.938c6.383,4.656,20.777-7.476,21.768-17.352s7.6-9.278,32.827-17.17l13.428,5.122.321,7.674c-8.775,8.019-28.731,11.353-28.731,11.353" transform="translate(758.757 154.299)" fill="#ff7000"/>
    <path id="Path_8" data-name="Path 8" d="M184.734,285.206c1.01-5.589,22.57-24.049,37.751-23.443,5.379.273,1.33,2.73,1.33,2.73s17.111-2.512,39.6,3.4,19.216,26.151-5.785,33.8c0,0,11.913,5.286,7.2,11.046s-19.616,12.964-31.151,12.121c0,0-2.254,16.008-25.9,1.072L205.746,310.3s9.377.667,9.424-7.614-9.3-2.808-9.3-2.808-6.209-2.369-5.8-5.768,6.071-4.649,5.889-9.609-21.222.7-21.222.7" transform="translate(763.47 146.919)" fill="#005cc4"/>
    <path id="Path_9" data-name="Path 9" d="M135.768,301.808c-6.919,25.472,25.922,47.685,52.7,13.967" transform="translate(746.552 160.5)" fill="none" stroke="#ff7000" stroke-miterlimit="10" stroke-width="1"/>
    <path id="Path_10" data-name="Path 10" d="M443.779,301.98l15.882-14.211a3.464,3.464,0,0,1,3.036-.809c6.147,1.31,27.333,5.534,38.618,4.128A3.47,3.47,0,0,0,502.7,284.7c-11.47-7.16-37.66-22.927-42.9-21-6.039,2.215-11.55,9.586-12.656,11.133a3.479,3.479,0,0,1-.469.533L432.72,288.321" transform="translate(847.54 147.526)" fill="#fff"/>
    <path id="Path_11" data-name="Path 11" d="M443.779,301.98l15.882-14.211a3.464,3.464,0,0,1,3.036-.809c6.147,1.31,27.333,5.534,38.618,4.128A3.47,3.47,0,0,0,502.7,284.7c-11.47-7.16-37.66-22.927-42.9-21-6.039,2.215-11.55,9.586-12.656,11.133a3.479,3.479,0,0,1-.469.533L432.72,288.321" transform="translate(847.54 147.526)" fill="none" stroke="#000" stroke-miterlimit="10" stroke-width="1"/>
    <path id="Path_12" data-name="Path 12" d="M364.967,285.3l-4.134-18.873a6.362,6.362,0,0,1,1.936-6.082c6.741-6.1,23.525-22.522,22.866-34.336a2.524,2.524,0,0,0-3.7-2.146c-9.443,5.06-41.426,22.608-42.42,28.66-1,6.1,2.379,14.112,3.358,16.261a6.387,6.387,0,0,1,.408,1.185l4.35,18.241" transform="translate(815.881 133.973)" fill="#fff"/>
    <path id="Path_13" data-name="Path 13" d="M364.967,285.3l-4.134-18.873a6.362,6.362,0,0,1,1.936-6.082c6.741-6.1,23.525-22.522,22.866-34.336a2.524,2.524,0,0,0-3.7-2.146c-9.443,5.06-41.426,22.608-42.42,28.66-1,6.1,2.379,14.112,3.358,16.261a6.387,6.387,0,0,1,.408,1.185l4.35,18.241" transform="translate(815.881 133.973)" fill="none" stroke="#000" stroke-miterlimit="10" stroke-width="1"/>
    <path id="Path_14" data-name="Path 14" d="M469.833,301.4s-78.133,123.235-83.6,120.72-19.926-10.071-17.315-22.948S383.04,328.1,454.144,273.437Z" transform="translate(825.804 150.882)"/>
    <path id="Path_15" data-name="Path 15" d="M449.256,273.437c-27.494,20.709-66.234,67.394-66.234,67.394" transform="translate(830.692 150.882)" fill="none" stroke="#ffafe9" stroke-linecap="round" stroke-miterlimit="10" stroke-width="3"/>
    <path id="Path_16" data-name="Path 16" d="M208.6,391.229c-56.184,0-80.808,27.183,65.431,27.183,104.929,0,37.333,2.244,58.993,9.883,21.875,7.717,129.274-6.766,187.321-11,47.65-3.475,14.85-18,44.4-18s.9-13.087-78.7-13.087S208.6,391.229,208.6,391.229" transform="translate(756.651 189.113)" fill="#005cc4"/>
    <path id="Path_17" data-name="Path 17" d="M208.6,391.229c-56.184,0-80.808,27.183,65.431,27.183,104.929,0,37.333,2.244,58.993,9.883,21.875,7.717,129.274-6.766,187.321-11,47.65-3.475,14.85-18,44.4-18s.9-13.087-78.7-13.087S208.6,391.229,208.6,391.229Z" transform="translate(756.651 189.113)" fill="none" stroke="#000" stroke-miterlimit="10" stroke-width="1"/>
    <path id="Path_18" data-name="Path 18" d="M285.706,363.26c-21.976-9.811-39.32-41.185-39.32-41.185s-12.264-6.2-33.96-4.664-5.427-.358-18.576,2.677-12.889,22.513-3.026,39.966,24.371,63.25,39.17,63.25h55.712s21.976-50.232,0-60.043" transform="translate(763.111 165.706)" fill="#fff"/>
    <path id="Path_19" data-name="Path 19" d="M285.706,363.26c-21.976-9.811-39.32-41.185-39.32-41.185s-12.264-6.2-33.96-4.664-5.427-.358-18.576,2.677-12.889,22.513-3.026,39.966,24.371,63.25,39.17,63.25h55.712S307.682,373.071,285.706,363.26Z" transform="translate(763.111 165.706)" fill="none" stroke="#000" stroke-miterlimit="10" stroke-width="1"/>
    <path id="Path_20" data-name="Path 20" d="M258.44,407.23l-49.938-.221,14.69-36.294s31.939,29.872,44.253,2.446Z" transform="translate(771.527 183.86)" fill="#fff"/>
    <path id="Path_21" data-name="Path 21" d="M211.612,402.717c-13.563,22.479-26.44,18.962-31.864,14.457-19.129-15.889-5.943-77.79-5.943-77.79l15.024-5.909,2.021,44.857,7.359-38.035" transform="translate(758.263 171.235)"/>
    <path id="Path_22" data-name="Path 22" d="M261.809,382.378c10.771-11.754,139.228,9.285,139.228,9.285-10.557-20.777-30.444-119.469-30.444-119.469l35.524-4.44s32.334,88.995,43.336,109.57c16.566,30.985,32.883,62.239-37.865,62.239H241.743Z" transform="translate(782.796 148.955)" fill="#ff7000"/>
    <path id="Path_23" data-name="Path 23" d="M246.984,320.832c22.886,11.331,5.157,64.1-8.161,86.171-13.563,22.479-35.158,22.3-40.581,17.794-19.129-15.889-16.159-80.749-16.159-80.749l24.333-4.095,5.68,47.673,9.432-42.819" transform="translate(762.514 166.949)" fill="#fff"/>
    <path id="Path_24" data-name="Path 24" d="M246.984,320.832c22.886,11.331,5.157,64.1-8.161,86.171-13.563,22.479-35.158,22.3-40.581,17.794-19.129-15.889-16.159-80.749-16.159-80.749l24.333-4.095,5.68,47.673,9.432-42.819" transform="translate(762.514 166.949)" fill="none" stroke="#000" stroke-miterlimit="10" stroke-width="1"/>
    <path id="Path_25" data-name="Path 25" d="M265.156,351.59,244.3,411.033h20.86Z" transform="translate(783.662 177.377)" fill="#ff7000"/>
    <path id="Path_26" data-name="Path 26" d="M370.554,281.32s15.242,48.961,45.352,107.351" transform="translate(826.465 153.554)" fill="none" stroke="#fff" stroke-linecap="round" stroke-linejoin="round" stroke-width="3"/>
    <path id="Path_27" data-name="Path 27" d="M321.712,381.024s49.58,7.982,68.694,24.756c0,0-14.58-12.126-7.7-32.356,7.172-21.095-14.53-18.409-36.216-91.555,0,0,19.621,92.2,27.443,105.008,1.816,1.608-52.216-5.853-52.216-5.853" transform="translate(809.907 153.74)"/>
    <path id="Path_28" data-name="Path 28" d="M255.591,369.217c-7.52,12.571,12.481,26.7,45.587,22.751,38.479-4.586,50.652,10.155,99,10.649s-158.435,2.547-158.435,2.547Z" transform="translate(782.796 183.352)"/>
    <path id="Path_29" data-name="Path 29" d="M242.042,400.619H425.4c22.134,0,31.806-10.578,36.729-15.226" transform="translate(782.898 188.836)" fill="none" stroke="#ffafe9" stroke-linecap="round" stroke-miterlimit="10" stroke-width="3"/>
    <path id="Path_30" data-name="Path 30" d="M254.377,338.17c-8.487,30.82-43.637,93.717-63.746,74.255,0,0-.311,7.359,16.175,7.359,22.809,0,47.571-45.075,47.571-81.614" transform="translate(765.469 172.827)" fill="#ff7000"/>
    <path id="Path_31" data-name="Path 31" d="M182.039,338.17c.179,50.039,5.842,83.146,25.279,83.146s38.08-19.868,45.966-58.2" transform="translate(762.556 172.827)" fill="none" stroke="#005cc4" stroke-linecap="round" stroke-linejoin="round" stroke-width="3"/>
    <path id="Path_32" data-name="Path 32" d="M377.194,225.066c-13.607,8.567-37.776,21.482-37.723,26.944s3.617,16.811,3.617,16.811" transform="translate(815.927 134.483)" fill="none" stroke="#ffafe9" stroke-linecap="round" stroke-miterlimit="10" stroke-width="3"/>
    <path id="Path_33" data-name="Path 33" d="M372.73,231.939s-21.4,10.851-19.393,14.6a11.378,11.378,0,0,1-.7,12.532s18.8-21.768,20.093-27.132" transform="translate(820.391 136.813)"/>
    <path id="Path_34" data-name="Path 34" d="M262.267,373.448c-11.328,13.236-19.051,15.112-31.318,14.67,0,0-7.956,12.7-16.585,18l36.493.186Z" transform="translate(773.514 184.787)" fill="#ff7000"/>
    <line id="Line_3" data-name="Line 3" x1="24.333" y2="4.783" transform="translate(944.595 506.214)" fill="none" stroke="#ffafe9" stroke-linecap="round" stroke-miterlimit="10" stroke-width="3"/>
    <path id="Path_35" data-name="Path 35" d="M382.2,213.717a21.491,21.491,0,0,1,0,30.393" transform="translate(830.414 130.636)" fill="none" stroke="#00b6eb" stroke-linecap="round" stroke-linejoin="round" stroke-width="3"/>
    <path id="Path_37" data-name="Path 37" d="M272.226,274.76c2.334,8.045-4.8,17.745-20.429,22.526,0,0,11.913,5.286,7.2,11.045s-19.618,12.964-31.151,12.121c0,0-2.254,16.008-25.9,1.073" transform="translate(769.305 151.33)" fill="none" stroke="#005cc4" stroke-linecap="round" stroke-linejoin="round" stroke-width="3"/>
    <path id="Path_38" data-name="Path 38" d="M184.734,285.206c1.01-5.589,22.57-24.049,37.751-23.443,5.379.273,1.33,2.73,1.33,2.73s17.111-2.512,39.6,3.4c8.433,2.217,13.244,6.449,14.645,11.276" transform="translate(763.47 146.919)" fill="none" stroke="#fff" stroke-linecap="round" stroke-linejoin="round" stroke-width="2"/>
    <path id="Path_39" data-name="Path 39" d="M207.6,300.907s7.624,17.732,11.719,20.933-20.041,15.038-20.041,15.038-2.021-17.652-9.368-14.2" transform="translate(765.225 160.194)" fill="#fff"/>
    <path id="Path_40" data-name="Path 40" d="M207.6,300.907s7.624,17.732,11.719,20.933-20.041,15.038-20.041,15.038-2.021-17.652-9.368-14.2" transform="translate(765.225 160.194)" fill="none" stroke="#000" stroke-miterlimit="10" stroke-width="1"/>
    <path id="Path_41" data-name="Path 41" d="M199.737,332.647c0-10.764-.407-24.768-2.511-22.257s-6.921,8.279-6.921,8.279,6.379-3.325,9.432,13.978" transform="translate(765.358 163.309)" fill="#ff7000"/>
    <line id="Line_4" data-name="Line 4" x1="23.923" y2="36.198" transform="translate(1246.83 490.948)" fill="none" stroke="#005cc4" stroke-linecap="round" stroke-linejoin="round" stroke-width="3"/>
    <path id="Path_42" data-name="Path 42" d="M344.621,301.808s6.619,31.265,16.641,65.5" transform="translate(817.673 160.5)" fill="none" stroke="#ffafe9" stroke-linecap="round" stroke-miterlimit="10" stroke-width="3"/>
    <path id="Path_43" data-name="Path 43" d="M212.069,321.774c-15.83,30.216-59.719,61.047-74.353,28.965s31.57-113.591,31.57-113.591" transform="translate(746.559 138.579)" fill="none" stroke="#ff7000" stroke-miterlimit="10" stroke-width="1"/>
    <path id="Path_44" data-name="Path 44" d="M178.8,336.383l-5.225,2.014s-2.276,11.107-3.522,24.183" transform="translate(758.492 172.221)" fill="none" stroke="#fff" stroke-linecap="round" stroke-linejoin="round" stroke-width="1"/>
    <path id="Path_45" data-name="Path 45" d="M170.038,354c-1.33,35.56,1.375,62.338,22.691,59.046" transform="translate(758.392 178.192)" fill="none" stroke="#005cc4" stroke-linecap="round" stroke-linejoin="round" stroke-width="3"/>
    <path id="Path_46" data-name="Path 46" d="M401.31,363.534s-16.81-2.794-35.393-5.547S277.754,345.6,262.082,354.25l-21.14,59.9" transform="translate(782.525 177.083)" fill="none" stroke="#005cc4" stroke-linecap="round" stroke-linejoin="round" stroke-width="3"/>
    <path id="Path_47" data-name="Path 47" d="M437.513,285.461s14.7-14.02,19.122-10.861,23.694-3.514,29.7,2.666a19.67,19.67,0,0,0,10.166,5.668.827.827,0,0,1,.114,1.6c-2.772.9-7.426,1.373-16.641-.04-11.686-1.792-14.366-2.493-16.94-2.911a5.268,5.268,0,0,0-3.563.84l-16.689,12.425Z" transform="translate(849.165 151.119)"/>
    <path id="Path_48" data-name="Path 48" d="M435.571,278.934c2.329,4.151,20.84,4.713,23.217,2.722l-14.137,13.461Z" transform="translate(848.506 152.745)"/>
    <path id="Path_49" data-name="Path 49" d="M200.428,306.324l2.037,15.636c23.643,14.935,25.9-1.073,25.9-1.073,11.533.845,26.433-6.363,31.151-12.122s-7.2-11.043-7.2-11.043c17.23-5.274,22.943-15.827,18.211-24.248-2.1,11.748-27.223,19.578-27.223,19.578-3.834,7.342-20.479,5.482-33.582,4.092a8.282,8.282,0,0,1,.133,1.567c-.048,8.282-9.425,7.614-9.425,7.614" transform="translate(768.79 150.894)"/>
    <path id="Path_50" data-name="Path 50" d="M293.237,177.467a35.682,35.682,0,1,1-35.682-35.682,35.682,35.682,0,0,1,35.682,35.682" transform="translate(776.06 106.25)" fill="#ff7000"/>
    <path id="Path_51" data-name="Path 51" d="M240.657,182.566c4.08-15.06-18.381-15.049-13.26-26.266a33.582,33.582,0,1,0,59.589,30.911c-10.067,19.879-50.854,12.06-46.329-4.645" transform="translate(776.477 111.171)"/>
    <path id="Path_52" data-name="Path 52" d="M266.99,184.205h-.237q-11.31,0-22.619.007a2.794,2.794,0,0,1-2.766-2.438,2.119,2.119,0,0,1-.009-.292V154.927c.072,0,.137-.009.2-.009q11.382,0,22.765,0a2.743,2.743,0,0,1,2.627,2.27,3.339,3.339,0,0,1,.037.49q0,13.148,0,26.294Zm-15.538-10.111,7.253-4.534-7.253-4.533Zm-6.879-14.606c.39,0,.779-.005,1.17,0,.137,0,.191-.028.19-.181-.008-.786-.007-1.573,0-2.359,0-.131-.028-.182-.171-.181-.791.007-1.584.005-2.377,0-.122,0-.173.027-.171.162q.008,1.2,0,2.4c0,.134.05.163.171.161.4-.005.793,0,1.189,0m20.559-1.348c0-.391-.005-.781,0-1.17,0-.146-.031-.2-.19-.2-.779.009-1.56.007-2.341,0-.137,0-.192.028-.19.181.008.786.005,1.573,0,2.359,0,.13.028.182.171.181q1.187-.01,2.377,0c.143,0,.174-.051.171-.181-.007-.39,0-.781,0-1.17m-20.569,5.92c.39,0,.779-.005,1.17,0,.145,0,.2-.029.2-.189-.008-.781-.007-1.561,0-2.341,0-.137-.027-.193-.179-.191-.786.008-1.573.007-2.359,0-.13,0-.182.028-.181.17q.008,1.189,0,2.378c0,.142.05.174.181.171.39-.007.779,0,1.17,0m20.569-1.334c0-.408,0-.817,0-1.225,0-.119-.038-.158-.157-.158q-1.207.006-2.414,0c-.111,0-.149.036-.149.147q.006,1.207,0,2.414c0,.119.036.158.157.158q1.2-.006,2.4,0c.127,0,.17-.037.167-.166-.007-.39,0-.781,0-1.17m-21.917,4.549c0,.39.005.781,0,1.17,0,.138.028.191.181.19.786-.007,1.572-.005,2.359,0,.13,0,.182-.029.181-.173-.007-.791-.005-1.584,0-2.377,0-.122-.028-.173-.162-.171q-1.2.008-2.4,0c-.134,0-.163.05-.162.171.007.4,0,.793,0,1.189m20.547,1.358c.4,0,.8,0,1.208,0,.094,0,.165,0,.163-.13q0-1.225,0-2.45c0-.106-.039-.137-.141-.137q-1.215,0-2.432,0c-.114,0-.146.04-.146.15q.006,1.207,0,2.413c0,.122.041.157.159.155.4-.005.793,0,1.188,0m-20.547,3.2c0,.4.005.793,0,1.188,0,.138.027.193.181.191.786-.008,1.572-.007,2.358,0,.131,0,.183-.028.182-.171-.007-.793-.005-1.585,0-2.377,0-.122-.028-.173-.162-.171q-1.2.008-2.4,0c-.134,0-.163.048-.162.171.007.39,0,.779,0,1.17m20.55,1.375c.391,0,.781-.005,1.17,0,.146,0,.2-.031.2-.19-.008-.779-.007-1.56,0-2.341,0-.137-.028-.191-.181-.19-.786.008-1.572.007-2.358,0-.131,0-.183.028-.182.171q.01,1.187,0,2.377c0,.142.051.174.181.171.391-.007.781,0,1.17,0m-19.2,4.573c.39,0,.781-.007,1.17,0,.146,0,.2-.031.2-.19-.008-.781-.007-1.561,0-2.341,0-.138-.027-.193-.181-.191-.786.008-1.572.007-2.358,0-.131,0-.182.029-.181.171q.008,1.189,0,2.377c0,.143.05.174.181.171.39-.007.779,0,1.17,0m17.854-1.367c0,.39.005.781,0,1.17,0,.146.031.2.19.2.781-.008,1.561-.007,2.341,0,.138,0,.193-.027.192-.179-.008-.787-.007-1.573,0-2.359,0-.131-.028-.182-.171-.181q-1.189.008-2.377,0c-.143,0-.174.05-.171.181.007.39,0,.781,0,1.17M245.931,181c0-.39-.005-.779,0-1.17,0-.149-.036-.2-.193-.2q-1.171.01-2.341,0c-.141,0-.19.033-.189.183q.012,1.171,0,2.341c0,.149.038.2.193.2.781-.008,1.561-.007,2.341,0,.141,0,.193-.033.189-.183-.011-.39,0-.779,0-1.17m17.838,1.351c.39,0,.781-.007,1.17,0,.149,0,.2-.036.2-.191-.008-.781-.007-1.561,0-2.341,0-.142-.034-.19-.182-.189q-1.171.01-2.341,0c-.149,0-.2.036-.2.193.008.779.007,1.56,0,2.341,0,.141.033.191.183.189.39-.011.781,0,1.17,0" transform="translate(782.666 110.702)" fill="#fff"/>
    <path id="Path_53" data-name="Path 53" d="M124.314,201.662A29.065,29.065,0,1,1,95.248,172.6a29.066,29.066,0,0,1,29.066,29.066" transform="translate(723.279 116.695)" fill="#ff7000"/>
    <path id="Path_54" data-name="Path 54" d="M94.4,223.813a26.834,26.834,0,0,0,26.518-22.819c-4.19-11.031-9.476-17.379-15.929-11.845-19.665,16.872-21.209,29.361-37.443,7.81A26.854,26.854,0,0,0,94.4,223.813" transform="translate(723.743 121.617)"/>
    <path id="Path_55" data-name="Path 55" d="M245.243,188.579a55.615,55.615,0,1,1-55.616-55.615,55.615,55.615,0,0,1,55.616,55.615" transform="translate(746.274 103.26)" fill="#ff7000"/>
    <path id="Path_56" data-name="Path 56" d="M187.067,195.189c-40.146,2.726-43.11-44.936-20.286-57.871a55.6,55.6,0,0,0-9.759,93.355c23.209-11.968,47.117-36.643,30.045-35.484" transform="translate(746.932 104.736)"/>
    <path id="Path_57" data-name="Path 57" d="M197.719,224.557a54.17,54.17,0,1,1-54.17-54.17,54.171,54.171,0,0,1,54.17,54.17" transform="translate(731.143 115.947)" fill="#ff7000"/>
    <path id="Path_58" data-name="Path 58" d="M127.143,138a17.6,17.6,0,1,1-17.6-17.6,17.6,17.6,0,0,1,17.6,17.6" transform="translate(732.011 99)" fill="#ff7000"/>
    <path id="Path_59" data-name="Path 59" d="M107.075,145.14c-11.029-5.747-9.291-18.7-.344-23.512a16.157,16.157,0,0,0,2.429,32.132c5.14-.986,9.091-2.8-2.085-8.621" transform="translate(732.368 99.417)"/>
    <path id="Path_60" data-name="Path 60" d="M275.116,219.522a64.369,64.369,0,1,1-64.369-64.369,64.37,64.37,0,0,1,64.369,64.369" transform="translate(750.466 110.782)" fill="#ff7000"/>
    <path id="Path_61" data-name="Path 61" d="M262.785,209.144a78.219,78.219,0,0,1-40.431,60.778" transform="translate(776.223 129.086)" fill="none" stroke="#ffafe9" stroke-linecap="round" stroke-miterlimit="10" stroke-width="3"/>
    <path id="Path_62" data-name="Path 62" d="M205.068,233.47c-12.111-16.162-43.739,8.949-53.238-16.459A59.508,59.508,0,0,0,252.4,239.419c-14.665,13.134-33.613,12.363-47.337-5.949" transform="translate(752.315 131.753)"/>
    <path id="Path_63" data-name="Path 63" d="M154.4,236.114c-9.95-11.186-14.448-27.681-14.448-27.681l15.423-31.222,5.083,4.874Z" transform="translate(748.287 118.26)" fill="#ff7000"/>
    <path id="Path_64" data-name="Path 64" d="M104.379,178.664l5.995,4.683-16.02,13.924,1.971-10.1Z" transform="translate(732.83 118.753)" fill="#ff7000"/>
    <path id="Path_65" data-name="Path 65" d="M169.215,226.338c-8.176,10.444-39.661,31.2-59.755,20.822,0,0,32.973,23.563,68.264-9.55Z" transform="translate(737.951 134.915)"/>
    <path id="Path_66" data-name="Path 66" d="M156.425,185.928l-4.6-9.115,16.107-23.379,56.821-1.938,8.887,8.6,2.318,8.721Z" transform="translate(752.315 109.543)" fill="#ff7000"/>
    <path id="Path_67" data-name="Path 67" d="M157.2,149.318a43.817,43.817,0,0,1,60.523,11.246" transform="translate(754.135 106.25)" fill="none" stroke="#fff" stroke-linecap="round" stroke-linejoin="round" stroke-width="3"/>
    <path id="Path_68" data-name="Path 68" d="M147.67,136.231a67.021,67.021,0,0,1,92.575,17.2" transform="translate(750.904 100.461)" fill="none" stroke="#00b6eb" stroke-linecap="round" stroke-linejoin="round" stroke-width="3"/>
    <path id="Path_69" data-name="Path 69" d="M107.335,213.971a22.7,22.7,0,0,1,17.734-22.183,22.274,22.274,0,0,1,21.322,6.134c4.123,4,8.148,8.1,12.216,12.162a5.346,5.346,0,0,1,0,7.8c-4.13,4.12-8.246,8.255-12.4,12.352a21.873,21.873,0,0,1-12.1,6.2,22.355,22.355,0,0,1-19.548-5.827,21.95,21.95,0,0,1-6.911-12.857c-.21-1.241-.269-2.509-.4-3.765l.076-.008m18.482-4.771,11.817-3.1v7.544l-.189-.021a4.194,4.194,0,1,0,3.714,4.269c.019-5.118.008-10.237.005-15.356a2.365,2.365,0,0,0-.572-1.569,2.629,2.629,0,0,0-2.9-.817q-6.421,1.679-12.846,3.341c-.822.214-1.646.431-2.492.653v14.57c-.449,0-.87-.036-1.284.005a4.2,4.2,0,0,0-3.73,4.358,4.241,4.241,0,0,0,8.475-.279q0-6.6,0-13.208Zm21.253-3.289v16.143c2.955-2.709,5.87-5.382,8.805-8.07l-8.805-8.073" transform="translate(737.205 122.995)" fill="#fff"/>
    <path id="Path_70" data-name="Path 70" d="M225.054,297.456a17.388,17.388,0,1,1-17.388-17.388,17.388,17.388,0,0,1,17.388,17.388" transform="translate(765.349 153.13)"/>
    <path id="Path_71" data-name="Path 71" d="M196,283.037a17.392,17.392,0,0,1,24.847,23" transform="translate(767.29 153.129)" fill="none" stroke="#ff7000" stroke-linecap="round" stroke-miterlimit="10" stroke-width="2"/>
    <path id="Path_72" data-name="Path 72" d="M217.655,295.962a11.484,11.484,0,1,1-11.485-11.485,11.483,11.483,0,0,1,11.485,11.485" transform="translate(766.844 154.624)" fill="#ff7000"/>
    <path id="Path_73" data-name="Path 73" d="M188.332,348.631l-.051-7.5a1.677,1.677,0,0,0-.824-1.46c-.757-.438-1.308-2.442-1.265-4.492.071-3.44,3.381-13.6,4.466-16.035s1.481-7.966,2.141-11.923c.857-5.13,6.613-9.212,9.688-9.755,2.437-.43,4.881,2.054,6.123,3.238,1,.951.612,10.206-1.407,16l2.979-6.109a1.708,1.708,0,0,1,3.231.947l-1.383,11.9a1.709,1.709,0,0,1-.289.771l-7.481,10.87a1.7,1.7,0,0,0-.3,1.046l.553,9.2" transform="translate(763.963 159.011)" fill="#fff"/>
    <path id="Path_74" data-name="Path 74" d="M188.332,348.631l-.051-7.5a1.677,1.677,0,0,0-.824-1.46c-.757-.438-1.308-2.442-1.265-4.492.071-3.44,3.381-13.6,4.466-16.035s1.481-7.966,2.141-11.923c.857-5.13,6.613-9.212,9.688-9.755,2.437-.43,4.881,2.054,6.123,3.238,1,.951.612,10.206-1.407,16l2.979-6.109a1.708,1.708,0,0,1,3.231.947l-1.383,11.9a1.709,1.709,0,0,1-.289.771l-7.481,10.87a1.7,1.7,0,0,0-.3,1.046l.553,9.2" transform="translate(763.963 159.011)" fill="none" stroke="#000" stroke-miterlimit="10" stroke-width="1"/>
    <path id="Path_75" data-name="Path 75" d="M78.056,185.856l-1.672-1.671a18.254,18.254,0,0,1,25.808-.009l-1.675,1.674a15.959,15.959,0,0,0-22.461.007" transform="translate(726.738 118.811)" fill="#fff"/>
    <path id="Path_76" data-name="Path 76" d="M80.574,188.028l-1.671-1.67a13.472,13.472,0,0,1,19.072,0L96.3,188.031a11.177,11.177,0,0,0-15.727,0" transform="translate(727.592 120.02)" fill="#fff"/>
    <path id="Path_77" data-name="Path 77" d="M81.423,188.516a8.713,8.713,0,0,1,12.311-.005l-1.678,1.678a6.382,6.382,0,0,0-8.955.005l-1.678-1.678" transform="translate(728.446 121.228)" fill="#fff"/>
    <path id="Path_78" data-name="Path 78" d="M86.749,195.3a2.867,2.867,0,1,1,2.867-2.86,2.868,2.868,0,0,1-2.867,2.86" transform="translate(729.279 122.449)" fill="#fff"/>
    <path id="Path_79" data-name="Path 79" d="M193.387,237.346v-.383c0-3.735,0-7.468.008-11.2,0-.3-.1-.4-.376-.494a29.953,29.953,0,0,1-12.758-7.619,21.11,21.11,0,0,1-5.692-10.152,19.119,19.119,0,0,1,2.525-14.682,25.773,25.773,0,0,1,9.713-9.029,33.487,33.487,0,0,1,12.13-3.95,36.015,36.015,0,0,1,19.721,2.758,27.256,27.256,0,0,1,11.079,8.708,19.911,19.911,0,0,1,3.947,10.1,19.291,19.291,0,0,1-2.951,12.225,25.872,25.872,0,0,1-9.543,8.912,33,33,0,0,1-12.214,4.013c-1.587.2-3.195.236-4.791.364a.883.883,0,0,0-.5.242q-4.989,4.969-9.961,9.954a2.378,2.378,0,0,0-.228.308l-.109-.071m0-34.143a4.389,4.389,0,1,0-4.4,4.388,4.392,4.392,0,0,0,4.4-4.388m29.849.007a4.389,4.389,0,1,0-4.407,4.381,4.391,4.391,0,0,0,4.407-4.381m-14.929-.02a4.385,4.385,0,1,0-4.381,4.4,4.384,4.384,0,0,0,4.381-4.4" transform="translate(759.852 119.034)" fill="#fff"/>
    <path id="Path_84" data-name="Path 84" d="M500.911,281.869a14.167,14.167,0,0,1-14.167,14.167" transform="translate(858.052 150.82)" fill="none" stroke="#ffafe9" stroke-linecap="round" stroke-miterlimit="10" stroke-width="3"/>
  </g>
</svg>
